<?xml version="1.0" standalone="no"?>
<!DOCTYPE svg PUBLIC "-//W3C//DTD SVG 20010904//EN"
 "http://www.w3.org/TR/2001/REC-SVG-20010904/DTD/svg10.dtd">
<svg version="1.0" xmlns="http://www.w3.org/2000/svg"
 width="193" height="52" viewBox="0 0 1196.000000 301.000000"
 preserveAspectRatio="xMidYMid meet">

<g transform="translate(0.000000,301.000000) scale(0.100000,-0.100000)"
fill="#3A78C9" stroke="none">
<path d="M3915 2999 c-133 -19 -314 -144 -410 -284 -21 -30 -39 -55 -40 -55
-1 0 -32 29 -69 65 -145 140 -266 198 -411 199 -85 1 -96 -1 -166 -36 -41 -20
-85 -48 -98 -62 l-24 -25 49 18 c27 10 65 22 84 25 l35 7 -30 -23 c-16 -13
-46 -38 -65 -55 l-35 -33 55 24 c30 14 73 28 95 31 l40 7 -42 -32 c-24 -17
-43 -33 -43 -34 0 -1 30 8 68 20 37 13 78 24 92 24 20 0 13 -7 -35 -36 -48
-28 -54 -34 -30 -30 17 3 53 8 80 11 39 4 45 3 27 -5 -66 -28 -62 -35 17 -33
57 2 68 0 43 -6 -50 -13 -50 -21 0 -21 49 0 102 -15 133 -38 18 -13 11 -14
-64 -8 -108 7 -309 -9 -404 -34 -241 -61 -360 -201 -348 -410 l2 -35 21 53
c12 29 38 72 59 95 l38 42 -18 -60 c-10 -33 -21 -82 -24 -110 l-6 -50 13 41
c29 86 75 158 127 195 l31 22 -21 -41 c-19 -36 -51 -149 -51 -177 0 -5 16 18
34 52 26 49 160 223 171 223 2 0 -26 -55 -61 -122 -35 -68 -64 -126 -64 -129
0 -4 47 42 105 101 58 59 105 106 105 103 0 -2 -17 -30 -38 -61 -59 -88 -59
-91 4 -31 32 30 68 62 79 70 18 13 18 13 -1 -16 -39 -57 -40 -61 -9 -41 54 35
90 55 130 71 l40 15 -35 -27 c-19 -15 -69 -61 -111 -104 -130 -131 -179 -267
-148 -412 9 -40 20 -81 24 -92 7 -17 3 -15 -26 8 -64 52 -134 95 -182 111 -99
33 -213 13 -284 -49 l-38 -35 35 14 c19 7 48 16 64 20 28 7 27 5 -15 -29 -54
-46 -62 -62 -17 -36 18 10 48 22 67 26 l34 7 -34 -31 -34 -31 31 15 c17 8 46
18 65 21 l34 6 -32 -22 c-39 -26 -41 -32 -10 -26 12 3 36 7 52 11 l30 6 -28
-19 -27 -19 57 3 c40 3 50 1 33 -5 -22 -7 -18 -9 32 -20 32 -7 60 -16 63 -20
2 -5 -62 -11 -143 -14 -202 -8 -296 -35 -381 -113 -55 -49 -81 -110 -81 -186
l0 -63 20 43 c17 37 60 102 60 91 0 -2 -7 -35 -15 -74 -8 -38 -13 -71 -11 -73
2 -2 11 19 20 45 15 46 69 123 85 123 4 0 0 -24 -10 -52 -10 -29 -18 -66 -18
-83 l1 -30 8 28 c9 30 88 145 115 167 10 8 -4 -28 -30 -80 l-47 -95 81 85 c84
87 90 88 38 10 l-30 -45 58 55 c53 51 56 53 40 21 l-17 -34 29 20 c15 11 48
30 73 42 44 22 45 22 20 1 -72 -61 -132 -128 -161 -183 -31 -56 -34 -70 -34
-148 0 -78 3 -91 37 -160 20 -40 59 -99 86 -129 l50 -55 -18 55 c-19 59 -36
180 -20 145 7 -16 9 -12 10 20 1 42 17 93 20 65 3 -27 19 23 19 60 1 26 4 31
11 20 5 -8 10 -26 11 -40 0 -14 8 11 17 55 l16 80 12 -40 11 -40 7 40 c4 22
15 72 24 110 l17 70 5 -65 5 -65 13 40 c6 22 21 51 32 65 l20 25 -11 -30 c-26
-72 -49 -206 -49 -290 1 -151 30 -235 115 -323 52 -53 96 -75 49 -24 -14 15
-31 36 -36 47 -9 17 -6 16 17 -5 27 -24 27 -24 16 -2 -16 31 -3 27 37 -10 l34
-33 -22 45 c-13 25 -32 58 -43 74 l-20 29 29 -19 29 -18 -26 30 c-29 32 -69
94 -69 107 0 5 18 -6 40 -23 l40 -32 -29 48 c-16 27 -32 60 -36 74 -7 25 -7
25 15 -3 29 -36 34 -30 15 16 -19 46 -19 56 0 31 14 -18 14 -17 5 9 -13 37
-13 150 0 142 10 -6 16 55 12 133 -1 27 2 41 8 37 6 -3 10 5 10 19 0 23 7 18
61 -42 97 -106 92 -102 86 -67 -5 26 -4 25 13 -10 11 -22 29 -62 42 -90 l23
-50 3 35 c4 33 5 31 27 -35 l23 -70 2 50 2 50 20 -85 c31 -137 36 -138 38 -5
2 141 15 115 26 -53 8 -114 14 -114 34 -2 l14 75 9 -55 c4 -30 6 -81 3 -113
-8 -83 10 -62 25 29 16 90 27 75 29 -36 l1 -75 22 40 c17 31 22 57 22 115 0
65 -4 84 -34 142 -18 37 -59 95 -90 130 -44 49 -49 57 -23 39 43 -30 121 -124
160 -193 80 -139 124 -375 106 -557 l-9 -85 -66 -16 c-36 -10 -120 -39 -185
-66 l-119 -49 -210 2 c-274 4 -285 1 -385 -92 -107 -101 -149 -113 -244 -69
-62 28 -104 28 -188 -2 -44 -15 -69 -9 -42 11 25 18 11 45 -23 45 -24 1 -41
17 -108 105 -44 57 -81 116 -83 130 -4 32 -52 37 -52 5 0 -19 -7 -20 -90 -20
-84 0 -90 1 -90 21 0 15 -5 20 -22 17 -19 -2 -24 -10 -26 -45 -2 -23 2 -59 7
-80 19 -67 5 -45 -37 59 l-41 103 27 23 c60 51 174 92 259 92 33 0 43 4 43 16
0 9 16 32 35 51 33 33 34 36 18 49 -36 27 -181 77 -261 91 -80 14 -171 9 -223
-12 -13 -5 -20 2 -29 29 -15 46 -35 61 -27 20 3 -16 8 -36 12 -45 5 -12 -8
-24 -47 -47 -103 -57 -214 -202 -263 -343 l-13 -36 50 5 c39 4 55 0 77 -16
l28 -21 33 34 c43 44 136 85 200 88 l52 2 70 -198 c38 -109 67 -202 63 -205
-4 -4 -96 -6 -204 -4 -182 2 -206 0 -295 -22 -53 -14 -120 -36 -149 -50 l-52
-24 400 -1 c220 0 677 4 1015 9 338 5 885 12 1215 15 330 4 606 9 614 11 18 6
-12 39 -127 140 l-84 73 -2 388 c-3 403 -11 519 -57 773 -40 228 -103 435
-184 608 -24 51 -39 90 -34 86 7 -4 8 7 3 33 -4 21 -4 36 -1 33 4 -3 29 -55
56 -115 l51 -110 0 60 1 60 33 -100 34 -100 2 80 2 80 34 -149 c19 -82 36
-151 39 -154 3 -3 5 66 5 154 1 108 4 154 10 142 9 -15 35 -215 42 -323 3 -33
6 -23 21 55 10 52 21 104 24 115 l6 20 8 -20 c4 -11 8 -76 9 -145 1 -119 2
-123 15 -87 8 21 18 70 23 110 8 71 9 71 22 42 7 -17 13 -70 14 -121 1 -89 1
-91 18 -67 48 74 51 227 5 327 -58 126 -191 277 -350 397 -77 58 -84 69 -33
49 38 -14 32 -6 -23 29 -59 38 -91 71 -70 71 21 0 172 -74 224 -110 60 -41 65
-38 16 15 -69 75 -52 75 59 0 l82 -54 -47 55 c-26 30 -45 57 -42 60 6 7 83
-44 135 -90 37 -32 36 -24 -3 29 -53 74 -45 73 50 -10 41 -36 75 -63 75 -59 0
3 -15 27 -34 53 -85 117 -30 80 87 -59 l38 -45 -51 100 -52 100 91 -95 92 -95
-32 55 c-17 30 -40 71 -51 90 -13 23 16 -2 82 -70 97 -99 102 -103 95 -70 -14
69 -66 161 -123 218 -108 109 -265 170 -465 179 -65 3 -114 10 -110 14 5 5 49
12 98 16 l90 7 -55 8 c-30 4 -66 10 -79 14 -47 11 0 24 89 25 l85 0 -47 15
c-27 8 -48 17 -48 20 0 3 44 3 98 0 l97 -6 -65 26 c-36 14 -67 28 -70 30 -7 7
77 -6 144 -23 32 -8 61 -12 63 -9 3 3 -21 17 -53 31 -106 45 -103 44 -59 44
22 0 60 -4 85 -9 25 -6 56 -12 70 -15 37 -7 -58 41 -97 50 -18 3 -36 11 -39
17 -9 14 86 2 178 -22 37 -10 68 -16 68 -15 0 10 -99 58 -161 78 -88 29 -172
38 -254 26z m-306 -1004 c118 -357 171 -785 156 -1270 -4 -132 -10 -261 -14
-287 l-6 -48 -31 19 -31 19 15 88 c19 122 11 323 -18 424 -47 166 -161 323
-309 428 -36 26 -73 54 -81 62 -8 9 -11 10 -7 4 12 -18 -98 43 -114 63 -13 15
-12 15 11 3 14 -7 38 -22 53 -33 37 -25 47 -14 17 18 -13 14 -19 25 -13 25 13
0 54 -31 126 -97 79 -72 112 -89 64 -33 -20 24 -35 46 -32 49 3 2 11 -1 17 -7
20 -20 29 -14 18 11 -7 13 4 5 25 -18 26 -29 33 -33 24 -15 l-12 25 27 -24
c28 -26 33 -23 15 12 -11 20 -10 20 16 -3 l28 -25 -28 50 c-16 28 -33 57 -38
65 -5 8 25 -21 67 -64 42 -44 76 -74 76 -68 0 6 -9 36 -21 67 -26 70 -102 154
-174 191 -39 20 -58 38 -65 58 -5 16 -10 31 -10 33 0 3 26 -17 57 -44 53 -45
55 -46 31 -13 -34 46 -71 120 -64 128 4 3 21 -5 39 -18 17 -13 27 -17 20 -9
-6 8 -17 27 -23 43 -9 26 -9 28 9 23 17 -4 18 -2 8 14 -16 26 -5 32 39 20 21
-6 39 -9 41 -7 2 1 -19 15 -46 29 -54 30 -61 44 -61 131 0 55 1 58 15 40 13
-17 14 -13 15 49 0 45 4 66 10 62 7 -4 9 2 6 17 -3 12 -8 41 -11 62 -6 36 -5
38 9 27 14 -12 16 -9 17 20 1 31 5 25 44 -56 24 -49 66 -158 94 -240z m-401
184 l-6 -91 34 70 c18 38 41 75 51 83 15 13 16 12 9 -6 -19 -50 -58 -195 -64
-240 l-7 -49 -60 -22 c-33 -11 -68 -24 -77 -29 -23 -9 -23 9 1 100 l18 70 11
-40 c7 -22 12 -47 13 -55 1 -8 7 19 14 61 15 86 55 239 62 239 3 0 3 -41 1
-91z m-165 -308 c-19 -22 -20 -12 -9 59 l10 65 6 -55 c4 -37 1 -60 -7 -69z
m-33 -25 c0 -3 -4 -8 -10 -11 -5 -3 -10 -1 -10 4 0 6 5 11 10 11 6 0 10 -2 10
-4z m210 -112 c0 -12 -6 -15 -22 -10 -13 3 -33 6 -46 6 -13 0 -20 4 -17 10 3
6 24 10 46 10 29 0 39 -4 39 -16z m5 -34 c8 -12 -42 -12 -70 0 -16 7 -11 9 22
9 23 1 45 -3 48 -9z m-1254 -1432 c17 -24 18 -28 4 -28 -51 0 -99 53 -116 130
l-8 34 50 -54 c27 -30 58 -67 70 -82z m-315 -30 c16 -15 47 -34 69 -44 l39
-16 -37 -35 c-21 -19 -43 -33 -49 -31 -5 2 -25 41 -44 87 -44 111 -51 134 -26
96 11 -16 32 -42 48 -57z m314 -88 c-46 -39 -106 -41 -140 -5 l-23 24 84 4
c46 1 91 4 99 5 8 1 -1 -12 -20 -28z m70 15 c0 -2 -10 -10 -22 -16 -21 -11
-22 -11 -9 4 13 16 31 23 31 12z m-240 -30 c11 -13 7 -15 -26 -15 -36 1 -38 2
-20 15 25 19 31 19 46 0z"/>
<path d="M1626 2541 c-12 -18 36 -61 80 -72 24 -6 44 -13 44 -16 0 -3 -10 -13
-22 -24 -22 -18 -22 -18 -3 -19 12 0 38 -9 60 -20 50 -26 87 -25 171 2 l69 23
-63 5 -64 5 32 30 c29 28 36 30 91 27 32 -2 92 2 131 9 63 11 69 14 43 20 -16
4 -59 7 -95 8 -36 1 -94 6 -129 11 l-63 11 -46 -38 -45 -37 -15 22 c-12 19
-24 22 -73 22 -45 0 -64 5 -79 20 -10 10 -22 15 -24 11z"/>
<path d="M945 2419 c-52 -41 -134 -74 -271 -109 -102 -27 -144 -51 -144 -84
l0 -25 -46 21 c-60 26 -129 21 -205 -15 -89 -43 -157 -33 -232 33 -48 42 -48
24 1 -22 65 -63 115 -82 212 -82 47 -1 113 3 147 8 33 5 74 5 90 2 l28 -8 -33
-29 c-18 -16 -41 -29 -52 -29 -10 0 -22 -5 -25 -10 -18 -30 135 26 192 70 27
20 57 40 68 44 18 8 16 10 -12 18 -18 5 -33 13 -33 18 0 14 77 55 140 75 81
26 167 73 200 112 17 19 30 38 30 43 0 13 3 14 -55 -31z"/>
<path d="M8399 2081 c-47 -47 -33 -132 26 -159 97 -44 197 47 151 136 -21 40
-44 52 -101 52 -38 0 -52 -5 -76 -29z"/>
<path d="M6210 1565 l0 -505 85 0 85 0 0 39 0 40 50 -34 c128 -86 341 -63 453
49 137 137 138 400 2 539 -97 100 -273 133 -405 76 -27 -12 -56 -29 -66 -40
-9 -10 -21 -19 -26 -19 -4 0 -8 81 -8 180 l0 180 -85 0 -85 0 0 -505z m507 53
c123 -81 124 -299 2 -384 -73 -50 -192 -44 -260 13 -97 82 -101 263 -7 350 64
60 191 70 265 21z"/>
<path d="M8000 1565 l0 -505 85 0 85 0 0 505 0 505 -85 0 -85 0 0 -505z"/>
<path d="M8810 1865 l0 -85 -60 0 -60 0 0 -65 0 -65 59 0 60 0 3 -223 3 -224
30 -48 c44 -71 104 -100 210 -100 84 0 165 25 165 50 0 7 -9 35 -21 62 l-20
50 -37 -13 c-49 -17 -77 -17 -111 1 -46 23 -52 52 -49 255 l3 185 98 3 97 3 0
64 0 64 -97 3 -98 3 -3 83 -3 82 -84 0 -85 0 0 -85z"/>
<path d="M1620 1853 c-50 -49 -141 -90 -247 -113 -104 -22 -136 -38 -153 -80
-11 -28 -12 -28 -46 -14 -45 19 -89 17 -154 -7 -105 -39 -136 -42 -193 -24
-29 9 -69 27 -89 41 -21 13 -38 21 -38 16 0 -12 61 -67 90 -82 72 -38 202 -50
312 -30 31 6 65 7 78 2 22 -8 20 -10 -23 -35 -25 -15 -58 -32 -74 -38 -24 -11
-25 -13 -8 -17 27 -6 122 16 169 40 21 11 50 32 65 46 14 15 39 32 56 39 l30
11 -33 7 c-18 4 -34 11 -37 15 -2 4 46 31 108 60 126 59 177 93 213 141 23 32
32 60 17 58 -5 -1 -24 -17 -43 -36z"/>
<path d="M5625 1794 c-11 -3 -37 -10 -57 -15 -20 -5 -58 -25 -83 -44 l-45 -35
0 45 0 45 -80 0 -80 0 0 -365 0 -365 85 0 85 0 0 208 c0 120 5 224 11 247 15
53 73 110 129 125 113 31 210 -25 231 -131 4 -24 8 -135 9 -246 l0 -203 86 0
86 0 -4 258 c-3 241 -5 260 -26 306 -52 115 -122 163 -252 170 -41 3 -84 3
-95 0z"/>
<path d="M7380 1790 c-113 -24 -208 -100 -258 -208 -24 -50 -27 -70 -27 -157
0 -93 2 -105 33 -167 56 -114 155 -181 299 -201 125 -18 269 19 331 86 28 29
23 43 -32 96 -33 32 -37 33 -53 18 -63 -56 -207 -75 -288 -38 -38 17 -115 91
-115 110 0 5 -3 16 -6 25 -6 14 23 16 281 16 l287 0 -4 88 c-6 107 -31 166
-103 238 -81 81 -221 120 -345 94z m168 -145 c47 -20 79 -50 103 -97 36 -70
42 -68 -186 -68 -134 0 -205 4 -205 10 0 21 31 85 53 109 52 56 159 77 235 46z"/>
<path d="M10655 1796 c-5 -3 -26 -7 -46 -10 -20 -4 -61 -22 -92 -40 l-57 -35
0 40 0 39 -85 0 -85 0 0 -365 0 -365 89 0 90 0 3 233 c3 230 3 234 28 270 31
46 109 87 165 87 63 0 126 -37 153 -90 21 -42 22 -56 22 -272 l0 -228 85 0 85
0 0 249 c0 284 -7 322 -71 395 -48 54 -120 86 -207 92 -37 2 -71 2 -77 0z"/>
<path d="M11445 1786 c-108 -27 -191 -91 -236 -182 -21 -43 -24 -63 -24 -159
0 -100 2 -115 27 -161 15 -28 50 -72 78 -97 69 -62 143 -89 245 -90 95 -1 146
12 206 53 44 29 44 29 48 7 5 -35 -18 -123 -41 -152 -70 -89 -270 -97 -413
-16 l-50 28 -37 -63 -37 -64 37 -25 c64 -44 155 -67 285 -73 188 -7 300 34
366 136 54 85 61 139 61 520 l0 342 -80 0 -80 0 0 -45 0 -45 -48 35 c-82 59
-198 78 -307 51z m240 -162 c22 -11 54 -40 70 -63 27 -38 30 -51 30 -115 0
-62 -4 -78 -27 -113 -59 -89 -192 -119 -297 -67 -69 35 -103 86 -109 163 -7
98 43 176 133 209 47 18 154 10 200 -14z"/>
<path d="M4880 1425 l0 -365 90 0 90 0 0 365 0 365 -90 0 -90 0 0 -365z"/>
<path d="M8390 1425 l0 -365 85 0 85 0 0 365 0 365 -85 0 -85 0 0 -365z"/>
<path d="M9362 1528 c3 -242 5 -267 24 -308 31 -67 68 -106 132 -137 50 -24
69 -28 147 -28 73 0 100 5 142 24 28 12 59 31 69 42 26 28 34 23 34 -21 l0
-40 80 0 80 0 0 365 0 365 -85 0 -85 0 0 -208 c0 -237 -9 -281 -66 -331 -61
-54 -143 -65 -214 -29 -80 41 -85 57 -88 331 l-3 237 -85 0 -85 0 3 -262z"/>
</g>
</svg>
